/* particles-dark.svg — puntos y líneas decorativas para modo oscuro (Edición Cian) */
<svg xmlns="http://www.w3.org/2000/svg" width="200" height="200">
  <circle cx="10"  cy="10"  r="1.5" fill="rgba(34,211,238,0.8)"/>
  <circle cx="50"  cy="30"  r="1"   fill="rgba(165,243,252,0.6)"/>
  <circle cx="100" cy="15"  r="2"   fill="rgba(8,145,178,0.7)"/>
  <circle cx="150" cy="40"  r="1.5" fill="rgba(34,211,238,0.5)"/>
  <circle cx="190" cy="10"  r="1"   fill="rgba(165,243,252,0.8)"/>
  <circle cx="30"  cy="70"  r="1"   fill="rgba(8,145,178,0.6)"/>
  <circle cx="80"  cy="60"  r="2.5" fill="rgba(34,211,238,0.4)"/>
  <circle cx="130" cy="80"  r="1"   fill="rgba(165,243,252,0.7)"/>
  <circle cx="175" cy="65"  r="1.5" fill="rgba(8,145,178,0.5)"/>
  <circle cx="20"  cy="120" r="1"   fill="rgba(34,211,238,0.7)"/>
  <circle cx="65"  cy="110" r="2"   fill="rgba(165,243,252,0.5)"/>
  <circle cx="115" cy="130" r="1.5" fill="rgba(8,145,178,0.8)"/>
  <circle cx="160" cy="115" r="1"   fill="rgba(34,211,238,0.6)"/>
  <circle cx="195" cy="130" r="2"   fill="rgba(165,243,252,0.4)"/>
  <circle cx="40"  cy="165" r="1.5" fill="rgba(8,145,178,0.7)"/>
  <circle cx="90"  cy="155" r="1"   fill="rgba(34,211,238,0.5)"/>
  <circle cx="140" cy="170" r="2"   fill="rgba(165,243,252,0.8)"/>
  <circle cx="185" cy="160" r="1"   fill="rgba(8,145,178,0.6)"/>
  <circle cx="10"  cy="190" r="1.5" fill="rgba(34,211,238,0.4)"/>
  <circle cx="100" cy="195" r="1"   fill="rgba(165,243,252,0.7)"/>
  <circle cx="190" cy="190" r="2"   fill="rgba(8,145,178,0.5)"/>
  <!-- Líneas tenues cian -->
  <line x1="10" y1="10" x2="50" y2="30"   stroke="rgba(34,211,238,0.15)" stroke-width="0.5"/>
  <line x1="50" y1="30" x2="100" y2="15"  stroke="rgba(165,243,252,0.12)"  stroke-width="0.5"/>
  <line x1="100" y1="15" x2="150" y2="40" stroke="rgba(8,145,178,0.15)" stroke-width="0.5"/>
  <line x1="80" y1="60" x2="130" y2="80"  stroke="rgba(34,211,238,0.12)" stroke-width="0.5"/>
  <line x1="65" y1="110" x2="115" y2="130" stroke="rgba(165,243,252,0.15)" stroke-width="0.5"/>
</svg>
